<?xml version="1.0" encoding="UTF-8"?>
<svg width="16" height="16" viewBox="0 0 16 16" xmlns="http://www.w3.org/2000/svg">
    <!-- 圓形背景 -->
    <circle cx="8" cy="8" r="7.5" fill="#FEB672" stroke="#666666" stroke-width="0.5"/>
    
    <!-- 字母 "S" -->
    <path d="M11 5.5
             q0 -1 -1.5 -1
             h-3
             q-1.5 0 -1.5 1
             v1
             h1
             v-0.5
             q0 -0.5 0.75 -0.5
             h2.5
             q0.75 0 0.75 0.5
             v1.5
             q0 0.5 -0.75 0.5
             h-3
             q-0.75 0 -0.75 0.5
             v2
             q0 1 1.5 1
             h3
             q1.5 0 1.5 -1
             v-1
             h-1
             v0.5
             q0 0.5 -0.75 0.5
             h-2.5
             q-0.75 0 -0.75 -0.5
             v-1.5
             q0 -0.5 0.75 -0.5
             h3
             q0.75 0 0.75 -0.5
             v-2" 
          fill="#2A2A2A"/>
</svg>